# xmcd CD database file
#
# Track frame offsets:
#	150
#	11337
#	22470
#	35602
#	47605
#	57757
#	68025
#	79030
#	91512
#	106705
#	115105
#	125930
#
# Disc length: 2020 seconds
#
# Revision: 0
# Processed by: cddbd v1.5.1PL0 Copyright (c) Steve Scherf et al.
# Submitted via: CDex 1.51
#
DISCID=9207e20c
DTITLE=クールス  - クールスの世界
DYEAR=1975
DGENRE=Rock and Roll
TTITLE0=ドント・ゲット・ホット・クールス
TTITLE1=愛しているなら
TTITLE2=涙のウェディング・デイ
TTITLE3=グッド・バイと言わないで
TTITLE4=あの娘はステディ・ガール
TTITLE5=恋の炎は燃えて
TTITLE6=紫のハイ・ウェイ
TTITLE7=シンデレラ
TTITLE8=ワン・デイ
TTITLE9=言えなかったんだ
TTITLE10=行ってしまったあの娘
TTITLE11=セカンド・イズ・ユー
EXTD=YEAR: 1975
EXTT0=
EXTT1=
EXTT2=
EXTT3=
EXTT4=
EXTT5=
EXTT6=
EXTT7=
EXTT8=
EXTT9=
EXTT10=
EXTT11=
PLAYORDER=
